<?xml version="1.0" encoding="UTF-8" standalone="no"?>
<!-- Created with Inkscape (http://www.inkscape.org/) -->

<svg
   xmlns:dc="http://purl.org/dc/elements/1.1/"
   xmlns:cc="http://creativecommons.org/ns#"
   xmlns:rdf="http://www.w3.org/1999/02/22-rdf-syntax-ns#"
   xmlns:svg="http://www.w3.org/2000/svg"
   xmlns="http://www.w3.org/2000/svg"
   xmlns:sodipodi="http://sodipodi.sourceforge.net/DTD/sodipodi-0.dtd"
   xmlns:inkscape="http://www.inkscape.org/namespaces/inkscape"
   width="26.035742mm"
   height="34.771271mm"
   viewBox="0 0 26.035742 34.771271"
   version="1.1"
   id="svg1010"
   inkscape:version="0.92.3 (unknown)"
   sodipodi:docname="unwed-tmpish.svg">
  <defs
     id="defs1004" />
  <sodipodi:namedview
     id="base"
     pagecolor="#ffffff"
     bordercolor="#666666"
     borderopacity="1.0"
     inkscape:pageopacity="0.0"
     inkscape:pageshadow="2"
     inkscape:zoom="1.4"
     inkscape:cx="170.54077"
     inkscape:cy="11.539723"
     inkscape:document-units="mm"
     inkscape:current-layer="layer1"
     showgrid="false"
     inkscape:window-width="1366"
     inkscape:window-height="725"
     inkscape:window-x="0"
     inkscape:window-y="0"
     inkscape:window-maximized="1" />
  <metadata
     id="metadata1007">
    <rdf:RDF>
      <cc:Work
         rdf:about="">
        <dc:format>image/svg+xml</dc:format>
        <dc:type
           rdf:resource="http://purl.org/dc/dcmitype/StillImage" />
        <dc:title></dc:title>
      </cc:Work>
    </rdf:RDF>
  </metadata>
  <g
     inkscape:label="Layer 1"
     inkscape:groupmode="layer"
     id="layer1"
     transform="translate(177.81549,-7.4715089)">
    <g
       id="g1577">
      <g
         transform="rotate(180,-226.1939,-433.711)"
         id="g982">
        <path
           d="m -283.28784,-892.27914 q -0.19641,-3.63163 -2.48651,-5.92185 -2.29021,-2.2902 -5.92186,-2.2902 -3.66434,0 -6.05268,2.38834 -2.4211,2.38837 -2.4211,5.56197 0,3.14085 2.32293,6.01999 2.25751,2.22479 5.49653,2.42107 v 5.39839 h 1.04695 v -6.34717 h -0.45804 q -3.27175,0 -5.30022,-2.15937 -2.06119,-2.15934 -2.06119,-5.16932 0,-3.04273 2.15933,-5.10393 2.12665,-2.06119 5.30022,-2.06119 3.1736,0 5.16935,1.99577 1.96305,1.96303 2.09392,5.26749 z m -8.60465,16.94759 q 1.11238,0 1.11238,-1.01422 0,-1.01423 -1.11238,-1.01423 -1.1451,0 -1.1451,1.01423 0,1.01422 1.1451,1.01422 z"
           style="font-style:normal;font-variant:normal;font-weight:normal;font-stretch:normal;font-size:medium;line-height:1.25;font-family:'Poiret One';-inkscape-font-specification:'Poiret One';letter-spacing:0px;word-spacing:0px;fill:#7ad4ff;fill-opacity:1;stroke:#7ad4ff;stroke-width:0.87608212;stroke-miterlimit:4;stroke-dasharray:none;stroke-opacity:1"
           id="path978"
           inkscape:connector-curvature="0" />
        <path
           inkscape:connector-curvature="0"
           id="path980"
           style="font-style:normal;font-variant:normal;font-weight:normal;font-stretch:normal;font-size:medium;line-height:1.25;font-family:'Poiret One';-inkscape-font-specification:'Poiret One';letter-spacing:0px;word-spacing:0px;fill:#ffb7b7;fill-opacity:1;stroke:#ffb7b7;stroke-width:0.87608212;stroke-miterlimit:4;stroke-dasharray:none;stroke-opacity:1"
           d="m -291.8925,-892.27914 q 0.19641,-3.63163 2.48651,-5.92185 2.29021,-2.2902 5.92186,-2.2902 3.66434,0 6.05268,2.38834 2.4211,2.38837 2.4211,5.56197 0,3.14085 -2.32293,6.01999 -2.25751,2.22479 -5.49653,2.42107 v 5.39839 h -1.04695 v -6.34717 h 0.45804 q 3.27175,0 5.30022,-2.15937 2.06119,-2.15934 2.06119,-5.16932 0,-3.04273 -2.15933,-5.10393 -2.12665,-2.06119 -5.30022,-2.06119 -3.1736,0 -5.16935,1.99577 -1.96305,1.96303 -2.09392,5.26749 z m 8.60465,16.94759 q -1.11238,0 -1.11238,-1.01422 0,-1.01423 1.11238,-1.01423 1.1451,0 1.1451,1.01423 0,1.01422 -1.1451,1.01422 z" />
      </g>
      <g
         id="g988"
         transform="translate(122.79256,917.13629)">
        <path
           inkscape:connector-curvature="0"
           id="path984"
           style="font-style:normal;font-variant:normal;font-weight:normal;font-stretch:normal;font-size:medium;line-height:1.25;font-family:'Poiret One';-inkscape-font-specification:'Poiret One';letter-spacing:0px;word-spacing:0px;fill:#7ad4ff;fill-opacity:1;stroke:#7ad4ff;stroke-width:0.87608212;stroke-miterlimit:4;stroke-dasharray:none;stroke-opacity:1"
           d="m -283.28784,-892.27914 q -0.19641,-3.63163 -2.48651,-5.92185 -2.29021,-2.2902 -5.92186,-2.2902 -3.66434,0 -6.05268,2.38834 -2.4211,2.38837 -2.4211,5.56197 0,3.14085 2.32293,6.01999 2.25751,2.22479 5.49653,2.42107 v 5.39839 h 1.04695 v -6.34717 h -0.45804 q -3.27175,0 -5.30022,-2.15937 -2.06119,-2.15934 -2.06119,-5.16932 0,-3.04273 2.15933,-5.10393 2.12665,-2.06119 5.30022,-2.06119 3.1736,0 5.16935,1.99577 1.96305,1.96303 2.09392,5.26749 z m -8.60465,16.94759 q 1.11238,0 1.11238,-1.01422 0,-1.01423 -1.11238,-1.01423 -1.1451,0 -1.1451,1.01423 0,1.01422 1.1451,1.01422 z" />
        <path
           d="m -291.8925,-892.27914 q 0.19641,-3.63163 2.48651,-5.92185 2.29021,-2.2902 5.92186,-2.2902 3.66434,0 6.05268,2.38834 2.4211,2.38837 2.4211,5.56197 0,3.14085 -2.32293,6.01999 -2.25751,2.22479 -5.49653,2.42107 v 5.39839 h -1.04695 v -6.34717 h 0.45804 q 3.27175,0 5.30022,-2.15937 2.06119,-2.15934 2.06119,-5.16932 0,-3.04273 -2.15933,-5.10393 -2.12665,-2.06119 -5.30022,-2.06119 -3.1736,0 -5.16935,1.99577 -1.96305,1.96303 -2.09392,5.26749 z m 8.60465,16.94759 q -1.11238,0 -1.11238,-1.01422 0,-1.01423 1.11238,-1.01423 1.1451,0 1.1451,1.01423 0,1.01422 -1.1451,1.01422 z"
           style="font-style:normal;font-variant:normal;font-weight:normal;font-stretch:normal;font-size:medium;line-height:1.25;font-family:'Poiret One';-inkscape-font-specification:'Poiret One';letter-spacing:0px;word-spacing:0px;fill:#ffb7b7;fill-opacity:1;stroke:#ffb7b7;stroke-width:0.87608212;stroke-miterlimit:4;stroke-dasharray:none;stroke-opacity:1"
           id="path986"
           inkscape:connector-curvature="0" />
      </g>
    </g>
    <g
       id="g1604">
      <path
         inkscape:export-ydpi="202.32899"
         inkscape:export-xdpi="202.32899"
         inkscape:connector-curvature="0"
         id="path1593"
         d="m -97.045385,29.39286 a 12.567708,12.567708 0 0 1 -12.567725,12.567708 12.567708,12.567708 0 0 1 -12.5677,-12.567708 12.567708,12.567708 0 0 1 12.5677,-12.567708 12.567708,12.567708 0 0 1 12.567725,12.567708 z"
         style="opacity:1;fill:#ffffff;fill-opacity:1;stroke:none;stroke-width:0.52899998;stroke-miterlimit:4;stroke-dasharray:none;stroke-dashoffset:0;stroke-opacity:1;paint-order:markers fill stroke" />
      <g
         transform="matrix(0.5,0,0,0.5,-27.214286,16.964287)"
         id="g1591">
        <g
           transform="rotate(180,-226.1939,-433.711)"
           id="g1583">
          <path
             d="m -283.28784,-892.27914 q -0.19641,-3.63163 -2.48651,-5.92185 -2.29021,-2.2902 -5.92186,-2.2902 -3.66434,0 -6.05268,2.38834 -2.4211,2.38837 -2.4211,5.56197 0,3.14085 2.32293,6.01999 2.25751,2.22479 5.49653,2.42107 v 5.39839 h 1.04695 v -6.34717 h -0.45804 q -3.27175,0 -5.30022,-2.15937 -2.06119,-2.15934 -2.06119,-5.16932 0,-3.04273 2.15933,-5.10393 2.12665,-2.06119 5.30022,-2.06119 3.1736,0 5.16935,1.99577 1.96305,1.96303 2.09392,5.26749 z m -8.60465,16.94759 q 1.11238,0 1.11238,-1.01422 0,-1.01423 -1.11238,-1.01423 -1.1451,0 -1.1451,1.01423 0,1.01422 1.1451,1.01422 z"
             style="font-style:normal;font-variant:normal;font-weight:normal;font-stretch:normal;font-size:medium;line-height:1.25;font-family:'Poiret One';-inkscape-font-specification:'Poiret One';letter-spacing:0px;word-spacing:0px;fill:#7ad4ff;fill-opacity:1;stroke:#7ad4ff;stroke-width:0.87608212;stroke-miterlimit:4;stroke-dasharray:none;stroke-opacity:1"
             id="path1579"
             inkscape:connector-curvature="0" />
          <path
             inkscape:connector-curvature="0"
             id="path1581"
             style="font-style:normal;font-variant:normal;font-weight:normal;font-stretch:normal;font-size:medium;line-height:1.25;font-family:'Poiret One';-inkscape-font-specification:'Poiret One';letter-spacing:0px;word-spacing:0px;fill:#ffb7b7;fill-opacity:1;stroke:#ffb7b7;stroke-width:0.87608212;stroke-miterlimit:4;stroke-dasharray:none;stroke-opacity:1"
             d="m -291.8925,-892.27914 q 0.19641,-3.63163 2.48651,-5.92185 2.29021,-2.2902 5.92186,-2.2902 3.66434,0 6.05268,2.38834 2.4211,2.38837 2.4211,5.56197 0,3.14085 -2.32293,6.01999 -2.25751,2.22479 -5.49653,2.42107 v 5.39839 h -1.04695 v -6.34717 h 0.45804 q 3.27175,0 5.30022,-2.15937 2.06119,-2.15934 2.06119,-5.16932 0,-3.04273 -2.15933,-5.10393 -2.12665,-2.06119 -5.30022,-2.06119 -3.1736,0 -5.16935,1.99577 -1.96305,1.96303 -2.09392,5.26749 z m 8.60465,16.94759 q -1.11238,0 -1.11238,-1.01422 0,-1.01423 1.11238,-1.01423 1.1451,0 1.1451,1.01423 0,1.01422 -1.1451,1.01422 z" />
        </g>
        <g
           id="g1589"
           transform="translate(122.79256,917.13629)">
          <path
             inkscape:connector-curvature="0"
             id="path1585"
             style="font-style:normal;font-variant:normal;font-weight:normal;font-stretch:normal;font-size:medium;line-height:1.25;font-family:'Poiret One';-inkscape-font-specification:'Poiret One';letter-spacing:0px;word-spacing:0px;fill:#7ad4ff;fill-opacity:1;stroke:#7ad4ff;stroke-width:0.87608212;stroke-miterlimit:4;stroke-dasharray:none;stroke-opacity:1"
             d="m -283.28784,-892.27914 q -0.19641,-3.63163 -2.48651,-5.92185 -2.29021,-2.2902 -5.92186,-2.2902 -3.66434,0 -6.05268,2.38834 -2.4211,2.38837 -2.4211,5.56197 0,3.14085 2.32293,6.01999 2.25751,2.22479 5.49653,2.42107 v 5.39839 h 1.04695 v -6.34717 h -0.45804 q -3.27175,0 -5.30022,-2.15937 -2.06119,-2.15934 -2.06119,-5.16932 0,-3.04273 2.15933,-5.10393 2.12665,-2.06119 5.30022,-2.06119 3.1736,0 5.16935,1.99577 1.96305,1.96303 2.09392,5.26749 z m -8.60465,16.94759 q 1.11238,0 1.11238,-1.01422 0,-1.01423 -1.11238,-1.01423 -1.1451,0 -1.1451,1.01423 0,1.01422 1.1451,1.01422 z" />
          <path
             d="m -291.8925,-892.27914 q 0.19641,-3.63163 2.48651,-5.92185 2.29021,-2.2902 5.92186,-2.2902 3.66434,0 6.05268,2.38834 2.4211,2.38837 2.4211,5.56197 0,3.14085 -2.32293,6.01999 -2.25751,2.22479 -5.49653,2.42107 v 5.39839 h -1.04695 v -6.34717 h 0.45804 q 3.27175,0 5.30022,-2.15937 2.06119,-2.15934 2.06119,-5.16932 0,-3.04273 -2.15933,-5.10393 -2.12665,-2.06119 -5.30022,-2.06119 -3.1736,0 -5.16935,1.99577 -1.96305,1.96303 -2.09392,5.26749 z m 8.60465,16.94759 q -1.11238,0 -1.11238,-1.01422 0,-1.01423 1.11238,-1.01423 1.1451,0 1.1451,1.01423 0,1.01422 -1.1451,1.01422 z"
             style="font-style:normal;font-variant:normal;font-weight:normal;font-stretch:normal;font-size:medium;line-height:1.25;font-family:'Poiret One';-inkscape-font-specification:'Poiret One';letter-spacing:0px;word-spacing:0px;fill:#ffb7b7;fill-opacity:1;stroke:#ffb7b7;stroke-width:0.87608212;stroke-miterlimit:4;stroke-dasharray:none;stroke-opacity:1"
             id="path1587"
             inkscape:connector-curvature="0" />
        </g>
      </g>
    </g>
    <text
       xml:space="preserve"
       style="font-style:normal;font-variant:normal;font-weight:normal;font-stretch:normal;font-size:9.8777771px;line-height:1.25;font-family:'Liberation Serif';-inkscape-font-specification:'Liberation Serif';letter-spacing:0px;word-spacing:0px;fill:#000000;fill-opacity:1;stroke:none;stroke-width:0.26458332"
       x="-124.75417"
       y="50.801369"
       id="text911"><tspan
         sodipodi:role="line"
         id="tspan909"
         x="-124.75417"
         y="50.801369"
         style="font-style:normal;font-variant:normal;font-weight:normal;font-stretch:normal;font-family:'Poiret One';-inkscape-font-specification:'Poiret One';stroke-width:0.26458332">unwed</tspan></text>
  </g>
</svg>
